<svg id="Layer_1" data-name="Layer 1" xmlns="http://www.w3.org/2000/svg" xmlns:xlink="http://www.w3.org/1999/xlink" viewBox="0 0 1500 1500"><defs><style>.cls-1{fill:url(#linear-gradient);}.cls-2{fill:url(#linear-gradient-2);}.cls-3{fill:url(#linear-gradient-3);}.cls-4{fill:url(#linear-gradient-4);}.cls-5{fill:url(#linear-gradient-5);}.cls-6{fill:url(#linear-gradient-6);}</style><linearGradient id="linear-gradient" x1="696.9" y1="678.95" x2="481.94" y2="1074.62" gradientUnits="userSpaceOnUse"><stop offset="0" stop-color="#ac0b00"/><stop offset="1" stop-color="#f77300"/></linearGradient><linearGradient id="linear-gradient-2" x1="1121.7" y1="851.4" x2="397.23" y2="937.43" gradientUnits="userSpaceOnUse"><stop offset="0.08" stop-color="#cd9048"/><stop offset="0.28" stop-color="#d9a152"/><stop offset="0.68" stop-color="#f0c066"/><stop offset="0.78" stop-color="#e9b75e"/><stop offset="0.94" stop-color="#d59f47"/><stop offset="0.99" stop-color="#ce963e"/></linearGradient><linearGradient id="linear-gradient-3" x1="992.66" y1="804.15" x2="810.12" y2="1006.96" gradientUnits="userSpaceOnUse"><stop offset="0" stop-color="#c92300"/><stop offset="1" stop-color="#db5a00"/></linearGradient><linearGradient id="linear-gradient-4" x1="894.98" y1="646.34" x2="894.98" y2="980.04" gradientUnits="userSpaceOnUse"><stop offset="0" stop-color="#8d0200"/><stop offset="1" stop-color="#cc4a00"/></linearGradient><linearGradient id="linear-gradient-5" x1="897.45" y1="743.12" x2="897.45" y2="1016.98" gradientUnits="userSpaceOnUse"><stop offset="0" stop-color="#b03910"/><stop offset="1" stop-color="#dc5c00"/></linearGradient><linearGradient id="linear-gradient-6" x1="898.05" y1="891.77" x2="898.05" y2="1016.38" gradientUnits="userSpaceOnUse"><stop offset="0" stop-color="#a7331b"/><stop offset="1" stop-color="#be4002"/></linearGradient></defs><path class="cls-1" d="M613.71,729.09,586,766.94c135,18,170.64,123.29,135.2,201-5.39,12-24.1,42.6-52.89,65s-59,38.62-92.92,47c-40.2,10-80.34,6.35-110.68-3.87-44-14.82-77.71-51.52-85.33-97.32-10.72-64.62,36.26-102.07,36.26-102.07C366.69,936,384,1076.12,543,1030.69c162-46.28,150.17-160.27,93.38-210.74s-152.69-8.84-152.69-8.84,104.95-133.54,109-137.54,122,0,122,0c92.5,0,93.76-30.14,91-41.32C847.09,756.26,613.71,729.09,613.71,729.09Z"/><path class="cls-2" d="M736.68,853.76c2.81-104.11,70.42-157,127.89-175.57V704C749.92,737.33,736.68,853.76,736.68,853.76ZM929.77,669.49v26.44c74.62,3,146.82,48.59,152,142.06,2.43,43.35-8.48,81.78-28.22,113.52-42.73,68.68-126.87,106.1-207.13,94.32-52.38-7.68-93.12-32.27-128.67-62.15-34.47-28.95-64.07-62.86-94.69-91.17-62.46-57.74-159.95-58.68-199.7-7.57-45.69,58.75,7.71,105.89,8.89,106.92-1.08-1.47-49.48-67.48,25.18-97.45,96.83-38.87,165.59,88.2,260.32,147.88q7,4.39,14.16,8.28c102.4,55.2,240.11,40.93,321.64-34.25,34.51-31.82,59-74.55,66.4-127.54C1138.3,758.51,1042.86,672.11,929.77,669.49Z"/><path class="cls-3" d="M1036.92,974.34a201.93,201.93,0,0,1-33.69,31.52l-1.36,1c-.77.56-1.53,1.11-2.31,1.66l-2.69,1.88c-.9.62-1.81,1.23-2.72,1.83l-.1.07c-.88.58-1.76,1.16-2.65,1.73s-1.85,1.17-2.78,1.75q-2.79,1.74-5.63,3.37c-1,.55-1.9,1.09-2.86,1.62l-2.6,1.43c-2.07,1.11-4.17,2.2-6.29,3.25l-2.78,1.36-2.58,1.22-.65.3-.59.27c-.69.32-1.38.63-2.08.93q-4.2,1.86-8.48,3.54c-.68.27-1.36.54-2,.79-1.42.54-2.85,1.07-4.28,1.58l-2.62.92-1.69.57c-1.52.51-3.06,1-4.61,1.48l-1.8.55c-1.08.33-2.18.65-3.28,1-.67.2-1.34.39-2,.56-6.49,1.78-13.08,3.24-19.72,4.39-1,.18-2,.35-3,.51l-3.25.49-2.26.31-1.85.24-1.19.14-1.51.17-2.42.25-1.67.16c-1.67.15-3.35.28-5,.39-.56,0-1.13.08-1.7.1l-2.12.12q-3.3.16-6.62.21l-3.3,0-3.39,0-2.52-.06-1.08,0-1.77-.07-1.89-.09c-.5,0-1,0-1.49-.09l-2.34-.15-.72,0c-1-.07-2-.15-3-.25-.23,0-.45,0-.67-.06-.91-.07-1.81-.16-2.72-.27-.48,0-1-.09-1.43-.16s-.87-.09-1.3-.15c-.82-.09-1.63-.19-2.44-.3l-.32,0-2.5-.35-3.45-.53-1.23-.21-.2,0c-1-.17-2.08-.36-3.1-.55a222.31,222.31,0,0,1-24.8-6l-2.22-.69c-1.24-.39-2.48-.79-3.71-1.21-.88-.29-1.75-.59-2.62-.9s-1.85-.65-2.77-1-1.77-.65-2.66-1c-1.77-.66-3.52-1.36-5.26-2.06l-2.72-1.13-2.45-1.06-2.56-1.14-.82-.36a265.09,265.09,0,0,1-41.26-23.65c6.37-8.93,18.19-28.81,27.25-66.32,10.4-43,12-63,14.34-70.06s17.15-20.49,18.08-22.07,4.08-30.34,6.86-42.86,13.7-32.31,21.18-39.92c5.59-6.7,12.06-13.7,12.25-13.76s10.66,0,23.09,0l38.92,0h1.25c4.57,0,12.62,0,20.57,0,11.56,0,22.92,0,23.07,0s6.64,7,12.23,13.73c9.15,9.24,18.42,27.42,21.2,40s5.94,41.28,6.86,42.86,15.19,14.52,19.27,24.82,6.93,36.55,12.94,62.48C1029.05,954.91,1032.47,964.93,1036.92,974.34Z"/><path class="cls-4" d="M1003.23,1005.86a212,212,0,0,1-38.58,22.74q-8.28,3.78-16.89,6.84A210.85,210.85,0,0,1,849,1046.18c-.83-.11-1.66-.22-2.5-.35q-8.31-1.21-16.22-3a223.27,223.27,0,0,1-43.52-14.52c4.46-16.24,13.65-49.84,17.52-65.45,5.2-21,9.06-51.47,15.43-105.64,3.86-32.92,8.72-67.92,12.67-94.16,2.55-16.92,4.73-30.2,6-36.93,3.28-17.15,17.35-52.82,19.09-58.79,1.49-5.15,9.58-49.88,11.78-62.09-3.55-2-5.62-4.35-5.62-6.9,0-4.91,7.69-9.16,18.92-11.23a15.06,15.06,0,0,1,7-9.78c0-.48.05-1,.07-1.43-5.53-2.38-9.28-7-9.28-12.42,0-5.87,4.48-10.89,10.85-13l0-1.81c-5-2-8.41-6.12-8.41-10.86s3.55-9,8.7-11v-.78c-3.76-1.8-6.28-5.09-6.28-8.86,0-5,4.36-9.1,10.17-10.08v-26h-12A2.77,2.77,0,0,1,881,477l6.58-11.74a2.8,2.8,0,0,1,2.4-1.42h5.42V422.28a4.4,4.4,0,0,1-2.7-3.82c0-2.44,2.41-4.41,5.36-4.41s5.34,2,5.34,4.41a4.39,4.39,0,0,1-2.7,3.82v2.08c1.55.68,3.6,1.61,6.36,2.94,9.69,4.64,8.1,6.5,18.31,6.1s7.7,7.7,21,8,11.67,3.57,21.23,1.06c0,0-8.36,9.7-17.51,7s-12.49.26-19,5.71-10.88-3.45-18.58,3.32a15.18,15.18,0,0,1-11.8,3.63v1.74h5.42a2.78,2.78,0,0,1,2.4,1.42L915.1,477a2.76,2.76,0,0,1-2.39,4.11h-12v26c5.81,1,10.19,5.13,10.19,10.08,0,3.77-2.53,7.06-6.29,8.86v.78c5.14,2,8.7,6.13,8.7,11s-3.43,8.86-8.42,10.86l0,1.81c6.38,2.13,10.86,7.15,10.86,13,0,5.37-3.76,10-9.29,12.42,0,.47,0,1,.07,1.43a15,15,0,0,1,7,9.78c11.22,2.07,18.93,6.32,18.93,11.23,0,2.56-2.09,4.92-5.65,6.9,2.2,12.22,10.29,56.94,11.79,62.09,1.73,6,15.81,41.64,19.08,58.79,1.29,6.73,3.46,20,6,36.9,4,26.24,8.82,61.25,12.69,94.19,6.37,54.17,10.22,84.62,15.43,105.64C994.33,972.9,999,990.35,1003.23,1005.86Z"/><path class="cls-5" d="M964.65,1028.6q-8.28,3.78-16.89,6.84A210.85,210.85,0,0,1,849,1046.18c-.83-.11-1.66-.22-2.5-.35q-8.31-1.21-16.22-3c2.45-28.7,11.88-138,14.89-159.76C848.61,858,864,755.45,864.29,753.72s.6-3.2,3-4.29a3.08,3.08,0,0,1,.38-.16,39,39,0,0,1,5.75-1.62,3.45,3.45,0,0,0,2.13-1.93,22.52,22.52,0,0,1,2.86-7.57c2.24-3.42,11.6-11.48,19.62-11.48s17.37,8.06,19.62,11.48a22.52,22.52,0,0,1,2.86,7.57,3.4,3.4,0,0,0,2.13,1.93,40.14,40.14,0,0,1,5.77,1.63l.35.15c2.44,1.09,2.74,2.56,3,4.29S947.51,858,951,883.08C953.61,902.08,961.15,988.13,964.65,1028.6Z"/><path class="cls-6" d="M947.76,1035.44A210.85,210.85,0,0,1,849,1046.18c-1.27-20.35-4-75-3.06-83.57,1.09-9.51,6-11.48,6.58-11.86a2.14,2.14,0,0,0,.93-1.7,332.65,332.65,0,0,1,5.86-47.57c5.19-26.49,14.15-45,14.92-46.47a4.44,4.44,0,0,1,2.95-2.63,62.51,62.51,0,0,1,6.23-1.55c.71-.17.71-.37.82-.67,2.14-6.85,7.58-14.17,13.86-14.17s11.71,7.32,13.84,14.17c.11.3.11.5.83.67a63.11,63.11,0,0,1,6.22,1.55,4.46,4.46,0,0,1,3,2.63c.78,1.52,9.73,20,14.91,46.47a329.23,329.23,0,0,1,5.86,47.57,2.17,2.17,0,0,0,.93,1.7c.63.38,5.49,2.35,6.58,11.86C951,969.93,949.13,1011,947.76,1035.44Z"/></svg>