<?xml version="1.0" encoding="utf-8"?>
<!-- Generator: Adobe Illustrator 27.4.0, SVG Export Plug-In . SVG Version: 6.00 Build 0)  -->
<svg version="1.1" id="Layer_1" xmlns="http://www.w3.org/2000/svg" xmlns:xlink="http://www.w3.org/1999/xlink" x="0px" y="0px"
	 viewBox="0 0 1500 626.5" style="enable-background:new 0 0 1500 626.5;" xml:space="preserve">
<style type="text/css">
	.st0{fill:url(#SVGID_1_);}
	.st1{fill:url(#SVGID_00000053546083760648299200000003574491318292454289_);}
	.st2{fill:url(#SVGID_00000121964382073615869140000015360584176674139813_);}
	.st3{fill:url(#SVGID_00000180352220593789488200000017474797114636441260_);}
	.st4{fill:url(#SVGID_00000051357056221953192490000009071057187652869798_);}
	.st5{fill:url(#SVGID_00000181767190828005065210000003383968004529579190_);}
	.st6{fill:url(#SVGID_00000174568322505645309950000015668550846137516674_);}
	.st7{fill:url(#SVGID_00000007405827860238332420000018161261736148319125_);}
	.st8{fill:url(#SVGID_00000183950982958849630270000008343051187599797421_);}
	.st9{fill:url(#SVGID_00000159458731197736388290000010882107412962879398_);}
	.st10{fill:url(#SVGID_00000149363786627082261940000004884059091975522478_);}
	.st11{fill:url(#SVGID_00000103257862523095364200000018202012142696708247_);}
	.st12{fill:url(#SVGID_00000124869338904662558970000004410876721199440574_);}
	.st13{fill:url(#SVGID_00000082327095327794381520000003900913753079334583_);}
	.st14{fill:url(#SVGID_00000010282905361064787890000006931573779707842237_);}
	.st15{fill:url(#SVGID_00000004545587830982933660000007409138651133030569_);}
	.st16{fill:url(#SVGID_00000161627489051305137700000013278485716169500573_);}
	.st17{fill:url(#SVGID_00000057109647658291023040000008652521610747104161_);}
	.st18{fill:url(#SVGID_00000006688482789658503890000009519172492896083098_);}
	.st19{fill:url(#SVGID_00000078732483196017277730000003771520858076006531_);}
	.st20{fill:url(#SVGID_00000147906360325584363330000008168307578564619683_);}
	.st21{fill:url(#SVGID_00000170961131962682857910000009868706006745380776_);}
	.st22{fill:url(#SVGID_00000035503983093184504380000014060590203658394258_);}
	.st23{fill:url(#SVGID_00000078016029786851283440000000366770718748276381_);}
	.st24{fill:url(#SVGID_00000170278782383668107080000003454302396775147184_);}
	.st25{fill:url(#SVGID_00000160158581376397409920000010130285127441744515_);}
	.st26{fill:url(#SVGID_00000078739203591080674740000007456221936374849186_);}
	.st27{fill:url(#SVGID_00000160887021596095691850000001208287054942598794_);}
	.st28{fill:url(#SVGID_00000015348426136100091950000013512378209412824472_);}
	.st29{fill:url(#SVGID_00000128471648804272088890000002786365103289124517_);}
	.st30{fill:url(#SVGID_00000000937047320285184270000006136581328593173135_);}
	.st31{fill:url(#SVGID_00000082336457173436075980000011007754419382594697_);}
	.st32{fill:url(#SVGID_00000102537646802049398020000004889781206883046791_);}
	.st33{fill:url(#SVGID_00000128475175049414936300000010413274892896082069_);}
	.st34{fill:url(#SVGID_00000178194933762433542470000014865883429433164679_);}
	.st35{fill:url(#SVGID_00000000902575398695060520000007081286186088377249_);}
	.st36{fill:url(#SVGID_00000117634225367483330460000000283963184852566194_);}
	.st37{fill:url(#SVGID_00000023998349208618973880000015324484970474383803_);}
	.st38{fill:url(#SVGID_00000052811081789062385260000002987678609950440850_);}
	.st39{fill:url(#SVGID_00000157292160738340291470000001233454572603994766_);}
	.st40{fill:url(#SVGID_00000058579886305117406840000005382908131017402260_);}
	.st41{fill:url(#SVGID_00000164484333523771446670000001542294664355228545_);}
	.st42{fill:url(#SVGID_00000025438648248416939580000004245615909756180412_);}
	.st43{fill:url(#SVGID_00000133492203645015027330000014932101223772775081_);}
	.st44{fill:url(#SVGID_00000101072568320310343080000002467967814229203871_);}
	.st45{fill:url(#SVGID_00000054246658693636901580000017764340360190894524_);}
	.st46{fill:url(#SVGID_00000008132812629523914690000013708762271310776469_);}
	.st47{fill:url(#SVGID_00000093878909963789639670000016248835982270176425_);}
	.st48{fill:url(#SVGID_00000181774537295465948750000015202513127922012570_);}
	.st49{fill:url(#SVGID_00000039839156077307698790000016538823402005314983_);}
	.st50{fill:url(#SVGID_00000082360704061882639890000001127158630597670017_);}
	.st51{fill:url(#SVGID_00000126285593330047853140000015315920857475453879_);}
	.st52{fill:url(#SVGID_00000034786772856322968110000016088341954328337582_);}
	.st53{fill:url(#SVGID_00000089547075116775679990000003521612113313708672_);}
	.st54{fill:url(#SVGID_00000089531756606237512930000002837578921671009176_);}
	.st55{fill:url(#SVGID_00000087392691364124131990000006457942794189706381_);}
	.st56{fill:url(#SVGID_00000131357867157384399590000011674454377600269715_);}
	.st57{fill:url(#SVGID_00000119819472372480894630000016614363609819616898_);}
	.st58{fill:url(#SVGID_00000116224533892478861340000017397505724986837901_);}
	.st59{fill:url(#SVGID_00000037694474841690465190000005647713497473860998_);}
	.st60{fill:url(#SVGID_00000054972642575416912280000003519180882371929256_);}
</style>
<linearGradient id="SVGID_1_" gradientUnits="userSpaceOnUse" x1="256.2061" y1="-88.5113" x2="121.566" y2="159.3087" gradientTransform="matrix(1 0 0 1 0 341.9999)">
	<stop  offset="0" style="stop-color:#AC0B00"/>
	<stop  offset="1" style="stop-color:#F77300"/>
</linearGradient>
<path class="st0" d="M204.1,284.9l-17.4,23.7c84.5,11.3,106.9,77.2,84.7,125.9c-3.4,7.5-15.1,26.7-33.1,40.7s-37,24.2-58.2,29.5
	c-25.2,6.2-50.3,4-69.3-2.4c-27.6-9.3-48.7-32.3-53.5-61C50.6,400.9,80,377.4,80,377.4c-30.6,37.1-19.8,124.8,79.8,96.4
	c101.5-29,94.1-100.4,58.5-132s-95.6-5.5-95.6-5.5s65.7-83.6,68.2-86.1s76.4,0,76.4,0c57.9,0,58.7-18.9,57-25.9
	C350.2,301.9,204.1,284.9,204.1,284.9z"/>
<linearGradient id="SVGID_00000030463339961749962430000006141230396805899170_" gradientUnits="userSpaceOnUse" x1="522.5177" y1="19.6349" x2="68.5077" y2="73.5449" gradientTransform="matrix(1 0 0 1 0 341.9999)">
	<stop  offset="8.000000e-02" style="stop-color:#CD9048"/>
	<stop  offset="0.28" style="stop-color:#D9A152"/>
	<stop  offset="0.68" style="stop-color:#F0C066"/>
	<stop  offset="0.78" style="stop-color:#E9B75E"/>
	<stop  offset="0.94" style="stop-color:#D59F47"/>
	<stop  offset="0.99" style="stop-color:#CE963E"/>
</linearGradient>
<path style="fill:url(#SVGID_00000030463339961749962430000006141230396805899170_);" d="M281.2,363c1.8-65.2,44.1-98.4,80.1-110
	v16.2C289.5,290.1,281.2,363,281.2,363z M402.2,247.6v16.6c46.8,1.9,92,30.5,95.3,89c1.5,27.2-5.3,51.2-17.7,71.1
	c-26.8,43-79.5,66.5-129.8,59.1c-32.8-4.8-58.4-20.2-80.6-39c-21.6-18.1-40.1-39.4-59.3-57.1c-39.1-36.2-100.2-36.8-125.2-4.7
	c-28.6,36.8,4.8,66.4,5.6,67c-0.7-0.9-31-42.3,15.8-61.1c60.7-24.3,103.7,55.4,163.1,92.8c2.9,1.8,5.9,3.6,8.9,5.2
	c64.2,34.6,150.5,25.6,201.6-21.5c21.6-19.9,37-46.7,41.6-79.9C532.9,303.4,473.1,249.2,402.2,247.6L402.2,247.6z"/>
<linearGradient id="SVGID_00000000200232964321051730000000172386307432104070_" gradientUnits="userSpaceOnUse" x1="441.7865" y1="-9.9081" x2="327.3965" y2="117.1919" gradientTransform="matrix(1 0 0 1 0 341.9999)">
	<stop  offset="0" style="stop-color:#C92300"/>
	<stop  offset="1" style="stop-color:#DB5A00"/>
</linearGradient>
<path style="fill:url(#SVGID_00000000200232964321051730000000172386307432104070_);" d="M469.4,438.6c-6.3,7.4-13.3,14-21.1,19.8
	l-0.9,0.6c-0.5,0.4-1,0.7-1.5,1l-1.7,1.2l-1.7,1.1h-0.1c-0.5,0.4-1.1,0.7-1.7,1.1l-1.7,1.1c-1.2,0.7-2.4,1.4-3.5,2.1
	c-0.6,0.4-1.2,0.7-1.8,1l-1.6,0.9c-1.3,0.7-2.6,1.4-4,2c-0.6,0.3-1.1,0.6-1.7,0.9l-1.6,0.8l-0.4,0.2l-0.4,0.2l-1.3,0.6
	c-1.8,0.8-3.5,1.5-5.3,2.2c-0.4,0.2-0.9,0.3-1.3,0.5c-0.9,0.3-1.8,0.7-2.7,1l-1.6,0.6l-1.1,0.4c-1,0.3-1.9,0.6-2.9,0.9l-1.1,0.4
	c-0.7,0.2-1.4,0.4-2,0.6c-0.4,0.1-0.8,0.2-1.3,0.4c-4.1,1.1-8.2,2-12.4,2.8l-1.9,0.3l-2,0.3l-1.4,0.2l-1.2,0.1l-0.8,0.1l-0.9,0.1
	l-1.5,0.2l-1,0.1c-1,0.1-2.1,0.2-3.1,0.2c-0.4,0-0.7,0-1.1,0.1s-0.9,0.1-1.3,0.1c-1.4,0.1-2.8,0.1-4.1,0.1h-2.1h-2.1
	c-0.5,0-1.1,0-1.6,0h-0.7h-1.1c-0.4,0-0.8,0-1.2-0.1H361l-1.5-0.1c-0.1,0-0.3,0-0.5,0c-0.6,0-1.3-0.1-1.9-0.1h-0.4
	c-0.6,0-1.1-0.1-1.7-0.2l-0.9-0.1l-0.8-0.1l-1.5-0.2h-0.2l-1.6-0.2l-2.2-0.3l-0.8-0.1h0l-2-0.3c-5.2-1-10.4-2.2-15.5-3.8l-1.4-0.4
	c-0.8-0.2-1.5-0.5-2.3-0.8l-1.6-0.6l-1.7-0.6l-1.7-0.6c-1.1-0.4-2.2-0.9-3.3-1.3l-1.7-0.7l-1.5-0.7l-1.6-0.7l-0.5-0.2
	c-9-4.2-17.7-9.1-25.9-14.8c4-5.6,11.4-18.1,17.1-41.6c6.5-27,7.5-39.5,9-43.9s10.8-12.8,11.3-13.8s2.6-19,4.3-26.9
	s8.6-20.2,13.3-25c3.5-4.2,7.5-8.6,7.7-8.6s6.7,0,14.5,0h24.4h0.8h12.9c7.2,0,14.4,0,14.5,0s4.2,4.4,7.7,8.6
	c5.7,5.8,11.5,17.2,13.3,25s3.7,25.9,4.3,26.9s9.5,9.1,12.1,15.5s4.3,22.9,8.1,39.2C464.5,426.4,466.6,432.7,469.4,438.6z"/>
<linearGradient id="SVGID_00000177451264680195322120000009349627268317183421_" gradientUnits="userSpaceOnUse" x1="380.4" y1="-108.94" x2="380.4" y2="100.19" gradientTransform="matrix(1 0 0 1 0 341.9999)">
	<stop  offset="0" style="stop-color:#8D0200"/>
	<stop  offset="1" style="stop-color:#CC4A00"/>
</linearGradient>
<path style="fill:url(#SVGID_00000177451264680195322120000009349627268317183421_);" d="M448.3,458.4c-7.5,5.6-15.6,10.4-24.2,14.2
	c-3.5,1.6-7,3-10.6,4.3c-19.8,7.1-41,9.5-61.9,6.7l-1.6-0.2c-3.5-0.5-6.9-1.1-10.2-1.9c-9.4-2.1-18.5-5.1-27.3-9.1
	c2.8-10.2,8.6-31.2,11-41c3.2-13.2,5.7-32.2,9.7-66.2c2.4-20.6,5.5-42.6,7.9-59c1.6-10.6,3-18.9,3.8-23.1c2-10.8,10.9-33.1,12-36.8
	c0.9-3.2,6-31.3,7.4-38.9c-2.2-1.2-3.5-2.7-3.5-4.3c0-3.1,4.8-5.8,11.9-7c0.5-2.6,2.1-4.8,4.4-6.1c0-0.3,0-0.6,0-0.9
	c-3.5-1.5-5.8-4.4-5.8-7.8c0-3.7,2.8-6.8,6.8-8.2V172c-3.1-1.2-5.3-3.8-5.3-6.8s2.2-5.7,5.5-6.9v-0.5c-2.3-0.9-3.8-3.1-3.9-5.6
	c0-3.1,2.7-5.7,6.4-6.3v-16.3h-7.5c-1,0-1.7-0.8-1.7-1.8c0-0.3,0.1-0.6,0.2-0.8l4.1-7.3c0.3-0.5,0.9-0.9,1.5-0.9h3.4V92.7
	c-1-0.4-1.6-1.3-1.7-2.4c0-1.5,1.5-2.8,3.4-2.8c1.7-0.1,3.2,1.1,3.4,2.8c-0.1,1.1-0.7,2-1.7,2.4V94c1,0.4,2.3,1,4,1.8
	c6.1,2.9,5.1,4.1,11.5,3.8s4.8,4.8,13.1,5s7.3,2.2,13.3,0.7c0,0-5.2,6.1-11,4.4s-7.8,0.2-11.9,3.6s-6.8-2.2-11.6,2.1
	c-2,1.8-4.7,2.6-7.4,2.3v1.1h3.4c0.6,0,1.2,0.3,1.5,0.9l4.1,7.3c0.5,0.8,0.2,1.9-0.7,2.4c-0.3,0.1-0.5,0.2-0.8,0.2H384v16.3
	c3.6,0.6,6.4,3.2,6.4,6.3c-0.1,2.5-1.7,4.6-3.9,5.6v0.5c3.2,1.2,5.5,3.8,5.5,6.9s-2.1,5.6-5.3,6.8v1.1c4,1.3,6.8,4.5,6.8,8.2
	c0,3.4-2.4,6.3-5.8,7.8c0,0.3,0,0.6,0,0.9c2.3,1.3,3.8,3.6,4.4,6.1c7,1.3,11.9,4,11.9,7c0,1.6-1.3,3.1-3.5,4.3
	c1.4,7.6,6.4,35.7,7.4,38.9c1.1,3.7,9.9,26.1,12,36.8c0.8,4.2,2.2,12.5,3.8,23.1c2.5,16.5,5.5,38.4,8,59c4,34,6.4,53,9.7,66.2
	C442.7,437.7,445.6,448.6,448.3,458.4z"/>
<linearGradient id="SVGID_00000123401527002318465880000012478675399361724057_" gradientUnits="userSpaceOnUse" x1="381.95" y1="-48.29" x2="381.95" y2="123.33" gradientTransform="matrix(1 0 0 1 0 341.9999)">
	<stop  offset="0" style="stop-color:#B03910"/>
	<stop  offset="1" style="stop-color:#DC5C00"/>
</linearGradient>
<path style="fill:url(#SVGID_00000123401527002318465880000012478675399361724057_);" d="M424.1,472.6c-3.5,1.6-7,3-10.6,4.3
	c-19.8,7.1-41,9.5-61.9,6.7l-1.6-0.2c-3.5-0.5-6.9-1.1-10.2-1.9c1.5-18,7.4-86.5,9.3-100.1c2.2-15.7,11.8-80,12-81.1
	c0-1.2,0.8-2.3,1.9-2.7l0.2-0.1c1.2-0.4,2.4-0.8,3.6-1c0.6-0.2,1.1-0.6,1.3-1.2c0.3-1.7,0.9-3.3,1.8-4.7c1.4-2.1,7.3-7.2,12.3-7.2
	s10.9,5.1,12.3,7.2c0.9,1.5,1.5,3.1,1.8,4.7c0.2,0.6,0.7,1,1.3,1.2c1.2,0.2,2.4,0.6,3.6,1l0.2,0.1c1.1,0.4,1.9,1.5,1.9,2.7
	c0.2,1.1,9.8,65.4,12,81.1C417.2,393.3,421.9,447.2,424.1,472.6z"/>
<linearGradient id="SVGID_00000062186912998417349490000011290715364955758467_" gradientUnits="userSpaceOnUse" x1="382.4268" y1="44.87" x2="382.4268" y2="122.96" gradientTransform="matrix(1 0 0 1 0 341.9999)">
	<stop  offset="0" style="stop-color:#A7331B"/>
	<stop  offset="1" style="stop-color:#BE4002"/>
</linearGradient>
<path style="fill:url(#SVGID_00000062186912998417349490000011290715364955758467_);" d="M413.5,476.9c-19.8,7.1-41,9.5-61.9,6.7
	c-0.8-12.8-2.5-47-1.9-52.4c0.7-6,3.7-7.2,4.1-7.4c0.3-0.2,0.6-0.6,0.6-1.1c0.5-10,1.7-19.9,3.7-29.8c1.9-10.1,5-19.8,9.4-29.1
	c0.3-0.8,1-1.4,1.9-1.6c1-0.4,3.5-0.9,3.9-1s0.5-0.2,0.5-0.4c1.3-4.3,4.7-8.9,8.7-8.9s7.3,4.6,8.7,8.9c0.1,0.2,0.1,0.3,0.5,0.4
	c1.3,0.3,2.6,0.6,3.9,1c0.8,0.2,1.5,0.8,1.9,1.6c4.3,9.3,7.4,19.1,9.3,29.1c1.9,9.8,3.2,19.8,3.7,29.8c0,0.4,0.2,0.8,0.6,1.1
	c0.4,0.2,3.4,1.5,4.1,7.4C415.6,435.9,414.4,461.6,413.5,476.9z"/>
<linearGradient id="SVGID_00000083055721888672175490000012540324975283759247_" gradientUnits="userSpaceOnUse" x1="1150.6" y1="149.3001" x2="288.9" y2="149.3001" gradientTransform="matrix(1 0 0 1 0 341.9999)">
	<stop  offset="0" style="stop-color:#BD3606"/>
	<stop  offset="1" style="stop-color:#BB3606"/>
</linearGradient>
<path style="fill:url(#SVGID_00000083055721888672175490000012540324975283759247_);" d="M598.8,501.6h-5v7.1h-6.2v-7.1h-15.5
	l-0.8-5.1l17.9-22.6h4.5v22.6h5.7L598.8,501.6z M577.8,496.6h9.7V484L577.8,496.6z"/>
<linearGradient id="SVGID_00000008843255723524797510000010824480931498604168_" gradientUnits="userSpaceOnUse" x1="1150.6" y1="135.6501" x2="288.9" y2="135.6501" gradientTransform="matrix(1 0 0 1 0 341.9999)">
	<stop  offset="0" style="stop-color:#BD3606"/>
	<stop  offset="1" style="stop-color:#BB3606"/>
</linearGradient>
<path style="fill:url(#SVGID_00000008843255723524797510000010824480931498604168_);" d="M610.4,474.5h-4v7.5c0,0.7,0.2,1.4,0.6,2
	c0.4,0.5,1,0.8,1.7,0.8c0.3,0,0.6,0,0.8-0.1l0.8-0.2l1,2.7c-0.2,0.2-0.5,0.3-0.8,0.4c-0.4,0.1-0.7,0.2-1.1,0.3
	c-0.4,0.1-0.7,0.1-1.1,0.1c-1,0-2-0.2-3-0.6c-0.8-0.4-1.5-1-2-1.8c-0.5-0.9-0.7-1.8-0.7-2.8v-8.1h-2.1v-2.8h2.1V468l3.6-0.7v4.6h2.8
	L610.4,474.5z"/>
<linearGradient id="SVGID_00000021114324794712573690000001435221642379595652_" gradientUnits="userSpaceOnUse" x1="1150.6" y1="133.7501" x2="288.9" y2="133.7501" gradientTransform="matrix(1 0 0 1 0 341.9999)">
	<stop  offset="0" style="stop-color:#BD3606"/>
	<stop  offset="1" style="stop-color:#BB3606"/>
</linearGradient>
<path style="fill:url(#SVGID_00000021114324794712573690000001435221642379595652_);" d="M614.1,487.2v-22.5l3.6-0.4v22.8h-3.6
	V487.2z M617.1,473.4c0.6-0.5,1.3-0.9,2-1.3c0.6-0.4,1.3-0.6,2-0.8c0.7-0.2,1.3-0.3,2-0.3c1.1-0.1,2.2,0.2,3.1,0.8
	c0.8,0.5,1.4,1.3,1.7,2.1c0.3,1,0.5,2.1,0.5,3.1v10.1h-3.6v-9.9c0-0.8-0.2-1.7-0.6-2.4c-0.4-0.6-1.1-0.9-1.9-0.9
	c-0.5,0-1.1,0.1-1.6,0.3c-0.6,0.2-1.1,0.5-1.6,0.8s-1,0.7-1.4,1.1L617.1,473.4z"/>
<linearGradient id="SVGID_00000013908553236400444770000014450150958602160540_" gradientUnits="userSpaceOnUse" x1="1150.6" y1="147.6501" x2="288.9" y2="147.6501" gradientTransform="matrix(1 0 0 1 0 341.9999)">
	<stop  offset="0" style="stop-color:#BD3606"/>
	<stop  offset="1" style="stop-color:#BB3606"/>
</linearGradient>
<path style="fill:url(#SVGID_00000013908553236400444770000014450150958602160540_);" d="M677.1,505.3v-24.4l-6,2.8l-2.5-4.8
	l10.6-4.9h4.1v31.3H677.1z"/>
<linearGradient id="SVGID_00000161603418379032332170000011980414069123867069_" gradientUnits="userSpaceOnUse" x1="1150.6" y1="147.6952" x2="288.9" y2="147.6952" gradientTransform="matrix(1 0 0 1 0 341.9999)">
	<stop  offset="0" style="stop-color:#BD3606"/>
	<stop  offset="1" style="stop-color:#BB3606"/>
</linearGradient>
<path style="fill:url(#SVGID_00000161603418379032332170000011980414069123867069_);" d="M690.6,481.2c4-7.3,13.3-10,20.6-5.9
	c0.1,0.1,0.2,0.1,0.3,0.2c2.2,1.4,4.1,3.3,5.3,5.7c1.3,2.6,2,5.4,1.9,8.3c0.1,3-0.6,5.9-1.9,8.5c-1.2,2.4-3,4.4-5.3,5.9
	s-5,2.2-7.8,2.1c-2.7,0-5.4-0.7-7.8-2.1c-2.3-1.4-4.1-3.4-5.3-5.8c-1.3-2.6-2-5.5-1.9-8.4C688.7,486.7,689.3,483.8,690.6,481.2z
	 M695.6,495.1c0.7,1.6,1.9,3,3.3,4c2.9,1.9,6.7,1.9,9.6,0c1.4-1,2.6-2.3,3.3-3.9c0.8-1.8,1.2-3.7,1.2-5.6c0-2-0.4-3.9-1.2-5.7
	c-0.7-1.6-1.9-2.9-3.3-3.9c-2.9-1.9-6.7-1.9-9.6,0c-1.4,0.9-2.6,2.3-3.3,3.8c-0.8,1.7-1.3,3.6-1.2,5.5
	C694.4,491.3,694.8,493.3,695.6,495.1z"/>
<linearGradient id="SVGID_00000077293302104596628940000013230570332361232058_" gradientUnits="userSpaceOnUse" x1="1150.6" y1="135.7001" x2="288.9" y2="135.7001" gradientTransform="matrix(1 0 0 1 0 341.9999)">
	<stop  offset="0" style="stop-color:#BD3606"/>
	<stop  offset="1" style="stop-color:#BB3606"/>
</linearGradient>
<path style="fill:url(#SVGID_00000077293302104596628940000013230570332361232058_);" d="M730.2,474.5h-4v7.5c0,0.7,0.2,1.4,0.6,2
	c0.4,0.5,1,0.8,1.7,0.8c0.3,0,0.6,0,0.8-0.1l0.8-0.2l1,2.7c-0.2,0.2-0.5,0.3-0.8,0.4c-0.4,0.1-0.7,0.2-1.1,0.3
	c-0.4,0.1-0.7,0.1-1.1,0.1c-1,0-2-0.2-2.9-0.6c-0.8-0.4-1.5-1-2-1.8c-0.5-0.9-0.7-1.8-0.7-2.8v-8.1h-2.1v-2.8h2.1v-3.8l3.6-0.7v4.5
	h2.9L730.2,474.5z"/>
<linearGradient id="SVGID_00000039849505635239695250000018181711746623139755_" gradientUnits="userSpaceOnUse" x1="1150.6" y1="133.8001" x2="288.9" y2="133.8001" gradientTransform="matrix(1 0 0 1 0 341.9999)">
	<stop  offset="0" style="stop-color:#BD3606"/>
	<stop  offset="1" style="stop-color:#BB3606"/>
</linearGradient>
<path style="fill:url(#SVGID_00000039849505635239695250000018181711746623139755_);" d="M733.9,487.2v-22.4l3.6-0.4v22.7
	L733.9,487.2L733.9,487.2z M736.9,473.4c0.6-0.5,1.3-0.9,2-1.2c0.6-0.4,1.3-0.6,2-0.8c0.7-0.2,1.3-0.3,2-0.3
	c1.1-0.1,2.1,0.2,3.1,0.8c0.8,0.5,1.3,1.3,1.6,2.2c0.3,1,0.5,2,0.5,3.1v10h-3.6v-9.8c0-0.8-0.2-1.7-0.6-2.4
	c-0.4-0.6-1.1-0.9-1.9-0.9c-0.5,0-1.1,0.1-1.6,0.3c-0.6,0.2-1.1,0.5-1.6,0.8c-0.5,0.4-1,0.7-1.4,1.1L736.9,473.4z"/>
<linearGradient id="SVGID_00000159461928078437702330000005444509254593966995_" gradientUnits="userSpaceOnUse" x1="1150.6" y1="144.6564" x2="288.9" y2="144.6564" gradientTransform="matrix(1 0 0 1 0 341.9999)">
	<stop  offset="0" style="stop-color:#BD3606"/>
	<stop  offset="1" style="stop-color:#BB3606"/>
</linearGradient>
<path style="fill:url(#SVGID_00000159461928078437702330000005444509254593966995_);" d="M766.6,498c0.7,0.3,1.6,0.7,2.7,1.1
	c1.1,0.4,2.2,0.7,3.3,1s2.2,0.4,3.4,0.4c1.4,0,2.8-0.1,4.1-0.5c1-0.3,1.8-0.9,2.5-1.7c0.6-0.7,0.9-1.6,0.8-2.5c0-1-0.4-2-1.1-2.7
	c-0.9-0.9-1.9-1.6-3-2.2c-1.2-0.7-2.7-1.5-4.3-2.2c-1.5-0.8-2.8-1.5-4.1-2.3c-1.2-0.7-2.3-1.6-3.3-2.5c-0.9-0.9-1.7-1.9-2.2-3.1
	s-0.8-2.5-0.8-3.8c0-1.8,0.5-3.5,1.5-5c1.1-1.6,2.6-2.8,4.3-3.5c2.1-0.9,4.4-1.3,6.8-1.3c1.9,0,3.7,0.3,5.5,0.8
	c1.6,0.5,3.2,1.1,4.7,1.8l-2,4.9c-0.7-0.4-1.5-0.7-2.2-1c-0.8-0.3-1.7-0.6-2.6-0.8c-1-0.2-2.1-0.3-3.1-0.3c-1.6-0.1-3.2,0.3-4.7,1.1
	c-1.2,0.6-1.9,1.9-1.9,3.3c0,1,0.3,2,1,2.8c0.8,0.9,1.8,1.7,2.9,2.2c1.3,0.7,2.8,1.5,4.5,2.4c1.4,0.7,2.8,1.4,4,2.2
	c1.2,0.7,2.3,1.5,3.3,2.5c0.9,0.9,1.7,1.9,2.3,3c0.6,1.2,0.8,2.5,0.8,3.9c0,1.9-0.5,3.7-1.6,5.2c-1.2,1.6-2.8,2.9-4.7,3.6
	c-2.4,0.9-4.9,1.4-7.5,1.3c-0.9,0-1.8-0.1-2.7-0.3c-1-0.2-2.1-0.4-3.1-0.7c-1-0.2-2-0.5-2.9-0.9c-0.7-0.3-1.4-0.6-2-1.1L766.6,498z"
	/>
<linearGradient id="SVGID_00000082330176624585725740000010704923689040850050_" gradientUnits="userSpaceOnUse" x1="1150.6" y1="149.9008" x2="288.9" y2="149.9008" gradientTransform="matrix(1 0 0 1 0 341.9999)">
	<stop  offset="0" style="stop-color:#BD3606"/>
	<stop  offset="1" style="stop-color:#BB3606"/>
</linearGradient>
<path style="fill:url(#SVGID_00000082330176624585725740000010704923689040850050_);" d="M799.2,493.5c0.1,1.3,0.5,2.6,1.2,3.7
	c0.6,1.1,1.6,1.9,2.7,2.5c1.5,0.7,3,1,4.7,0.9c1.4,0,2.9-0.2,4.2-0.6c1.3-0.5,2.6-1,3.8-1.7l1.8,4.5c-0.9,0.6-1.8,1.1-2.7,1.6
	c-1,0.5-2.1,0.9-3.3,1.1c-1.3,0.2-2.5,0.4-3.8,0.4c-2.9,0.1-5.7-0.5-8.3-1.7c-2.1-1.1-3.9-2.8-5-4.9c-1.1-2.3-1.7-4.8-1.7-7.3
	c-0.1-2.5,0.5-5.1,1.6-7.4c1-2,2.6-3.7,4.5-4.9c2.1-1.2,4.6-1.8,7-1.8c2.4-0.1,4.8,0.6,6.8,2c1.8,1.3,3.1,3.1,3.9,5.2
	c0.8,2.2,1.2,4.6,1.2,7v1.4L799.2,493.5z M811.8,489.3c-0.1-1.2-0.5-2.3-1.1-3.4c-0.5-0.9-1.2-1.6-2.1-2.1c-0.9-0.5-2-0.7-3-0.7
	c-1.1,0-2.1,0.2-3.1,0.7c-0.9,0.5-1.6,1.2-2.2,2.1c-0.6,1-0.9,2.2-1.1,3.4H811.8z"/>
<linearGradient id="SVGID_00000153695692097728776110000001122871801910708373_" gradientUnits="userSpaceOnUse" x1="1150.6" y1="155.5947" x2="288.9" y2="155.5947" gradientTransform="matrix(1 0 0 1 0 341.9999)">
	<stop  offset="0" style="stop-color:#BD3606"/>
	<stop  offset="1" style="stop-color:#BB3606"/>
</linearGradient>
<path style="fill:url(#SVGID_00000153695692097728776110000001122871801910708373_);" d="M822.8,517.2v-38.5h3.2l2.9,3.8v34.2
	L822.8,517.2z M824.9,482.7c0.8-1,1.7-1.9,2.8-2.6c1-0.7,2.1-1.2,3.3-1.6c1-0.4,2.1-0.5,3.2-0.5c2.5-0.1,4.9,0.5,7.1,1.7
	c2,1.1,3.6,2.8,4.6,4.9c1.1,2.3,1.7,4.9,1.6,7.4c0.1,2.5-0.5,5-1.6,7.2c-1.1,2-2.7,3.7-4.7,4.9c-2.2,1.2-4.7,1.8-7.3,1.8
	c-1.1,0-2.1-0.2-3.1-0.6c-1.2-0.4-2.4-1-3.4-1.7s-1.9-1.6-2.6-2.6l1.8-4.2c1,1.2,2.2,2.2,3.5,3c1.2,0.6,2.5,0.9,3.8,0.9
	c1.4,0,2.8-0.4,3.9-1.1c1.1-0.8,1.9-1.9,2.4-3.1c0.6-1.4,0.8-2.9,0.8-4.4c0-1.6-0.2-3.1-0.8-4.6c-0.5-1.2-1.3-2.3-2.4-3.1
	c-1.1-0.8-2.5-1.2-3.9-1.1c-1.3,0-2.7,0.3-3.9,0.9c-1.3,0.8-2.4,1.7-3.5,2.8L824.9,482.7z"/>
<linearGradient id="SVGID_00000044864986692848210650000004196257633373622447_" gradientUnits="userSpaceOnUse" x1="1150.6" y1="146.6001" x2="288.9" y2="146.6001" gradientTransform="matrix(1 0 0 1 0 341.9999)">
	<stop  offset="0" style="stop-color:#BD3606"/>
	<stop  offset="1" style="stop-color:#BB3606"/>
</linearGradient>
<path style="fill:url(#SVGID_00000044864986692848210650000004196257633373622447_);" d="M866.4,483.5h-6.8v12.7
	c0,1.2,0.3,2.3,1,3.3c0.7,0.9,1.8,1.4,2.9,1.3c0.5,0,0.9-0.1,1.4-0.2l1.3-0.4l1.8,4.5c-0.4,0.3-0.8,0.5-1.3,0.7
	c-0.6,0.2-1.2,0.4-1.8,0.5s-1.2,0.2-1.8,0.2c-1.7,0-3.4-0.3-5-1c-1.4-0.6-2.6-1.7-3.3-3c-0.8-1.5-1.2-3.1-1.2-4.8v-13.8h-3.7v-4.7
	h3.6v-6.5l6.2-1.2v7.7h4.8L866.4,483.5z"/>
<linearGradient id="SVGID_00000059305996813425615890000008608825950411375012_" gradientUnits="userSpaceOnUse" x1="1150.6" y1="149.9008" x2="288.9" y2="149.9008" gradientTransform="matrix(1 0 0 1 0 341.9999)">
	<stop  offset="0" style="stop-color:#BD3606"/>
	<stop  offset="1" style="stop-color:#BB3606"/>
</linearGradient>
<path style="fill:url(#SVGID_00000059305996813425615890000008608825950411375012_);" d="M877,493.5c0.1,1.3,0.5,2.6,1.2,3.7
	c0.6,1.1,1.6,1.9,2.7,2.5c1.5,0.7,3.1,1,4.7,0.9c1.4,0,2.8-0.2,4.2-0.6c1.3-0.5,2.6-1,3.8-1.7l1.8,4.5c-0.9,0.6-1.8,1.1-2.7,1.6
	c-1,0.5-2.1,0.9-3.3,1.1c-1.3,0.2-2.5,0.4-3.8,0.4c-2.9,0.1-5.7-0.5-8.3-1.7c-2.1-1.1-3.9-2.8-5-4.9c-1.1-2.3-1.7-4.8-1.7-7.3
	c-0.1-2.5,0.5-5.1,1.6-7.4c1-2,2.6-3.7,4.5-4.9c2.1-1.2,4.6-1.8,7-1.8c2.4-0.1,4.8,0.6,6.8,2c1.8,1.3,3.1,3.1,3.9,5.2
	c0.8,2.2,1.2,4.6,1.2,7v1.4L877,493.5z M889.6,489.3c-0.1-1.2-0.5-2.3-1.1-3.4c-0.5-0.9-1.2-1.6-2.1-2.1c-0.9-0.5-2-0.7-3-0.7
	c-1.1,0-2.1,0.2-3.1,0.7c-0.9,0.5-1.6,1.2-2.2,2.1c-0.6,1-0.9,2.2-1.1,3.4H889.6z"/>
<linearGradient id="SVGID_00000058562686623278235530000006378146112275192756_" gradientUnits="userSpaceOnUse" x1="1150.6" y1="149.4926" x2="288.9" y2="149.4926" gradientTransform="matrix(1 0 0 1 0 341.9999)">
	<stop  offset="0" style="stop-color:#BD3606"/>
	<stop  offset="1" style="stop-color:#BB3606"/>
</linearGradient>
<path style="fill:url(#SVGID_00000058562686623278235530000006378146112275192756_);" d="M900.2,505.2v-26.6h4.2l1,3.2
	c1-0.8,2.1-1.5,3.2-2.1c1.1-0.6,2.2-1.1,3.4-1.4c1-0.3,2.1-0.5,3.1-0.5c1.7-0.1,3.5,0.3,5,1.2c1.3,0.8,2.2,2,2.7,3.4
	c0.6,1.6,0.9,3.4,0.8,5.1v17.6h-6.2v-16.7c0-1-0.1-2-0.4-3c-0.2-0.7-0.6-1.4-1.2-1.9c-0.7-0.5-1.5-0.7-2.3-0.7s-1.7,0.2-2.5,0.5
	c-0.9,0.4-1.7,0.8-2.5,1.4s-1.6,1.2-2.4,1.8V505h-5.9V505.2z M922.5,481.8c1-0.8,2.1-1.5,3.3-2.1c1.1-0.6,2.2-1.1,3.4-1.4
	c1-0.3,2.1-0.5,3.1-0.5c1.7-0.1,3.4,0.3,4.9,1.2c1.3,0.8,2.2,2,2.8,3.4c0.6,1.6,0.9,3.4,0.8,5.1v17.6h-6.2v-16.7c0-1-0.1-2-0.4-3
	c-0.2-0.7-0.6-1.4-1.2-1.9c-0.6-0.5-1.4-0.7-2.2-0.7c-0.9,0-1.7,0.2-2.5,0.5c-0.9,0.4-1.7,0.8-2.5,1.4s-1.6,1.2-2.4,1.8L922.5,481.8
	z"/>
<linearGradient id="SVGID_00000044868846384066091640000004699840575170461066_" gradientUnits="userSpaceOnUse" x1="1150.6" y1="144.2501" x2="288.9" y2="144.2501" gradientTransform="matrix(1 0 0 1 0 341.9999)">
	<stop  offset="0" style="stop-color:#BD3606"/>
	<stop  offset="1" style="stop-color:#BB3606"/>
</linearGradient>
<path style="fill:url(#SVGID_00000044868846384066091640000004699840575170461066_);" d="M947.5,505.2v-38l6.1-0.6v34.6l-2.9,4
	H947.5z M949.7,482.7c0.8-1,1.7-1.9,2.8-2.6c1-0.7,2.1-1.2,3.3-1.6c1.1-0.4,2.2-0.5,3.3-0.5c2.5-0.1,4.9,0.5,7.1,1.7
	c2,1.1,3.6,2.9,4.6,4.9c1.1,2.3,1.7,4.9,1.6,7.4c0.1,2.5-0.5,5-1.6,7.2c-1.1,2-2.7,3.7-4.7,4.9c-2.2,1.2-4.7,1.8-7.3,1.8
	c-1.1,0-2.1-0.2-3.2-0.6c-1.2-0.4-2.3-1-3.4-1.7c-1-0.7-1.9-1.6-2.6-2.6l1.8-4.2c1,1.2,2.2,2.2,3.6,3c1.2,0.6,2.5,0.9,3.8,0.9
	c1.4,0,2.8-0.4,3.9-1.1c1.1-0.8,1.9-1.9,2.4-3.1c0.6-1.4,0.8-2.9,0.8-4.4c0-1.6-0.2-3.1-0.8-4.6c-0.5-1.2-1.3-2.3-2.4-3.1
	c-1.1-0.8-2.5-1.2-3.9-1.1c-1.3,0-2.7,0.3-3.9,0.9c-1.3,0.8-2.4,1.7-3.5,2.8L949.7,482.7z"/>
<linearGradient id="SVGID_00000004544469822618745220000013834610996321605021_" gradientUnits="userSpaceOnUse" x1="1150.6" y1="149.9008" x2="288.9" y2="149.9008" gradientTransform="matrix(1 0 0 1 0 341.9999)">
	<stop  offset="0" style="stop-color:#BD3606"/>
	<stop  offset="1" style="stop-color:#BB3606"/>
</linearGradient>
<path style="fill:url(#SVGID_00000004544469822618745220000013834610996321605021_);" d="M981.9,493.5c0.1,1.3,0.5,2.6,1.2,3.7
	c0.6,1.1,1.6,1.9,2.7,2.5c1.5,0.7,3.1,1,4.7,0.9c1.4,0,2.8-0.2,4.2-0.6c1.3-0.5,2.6-1,3.8-1.7l1.8,4.5c-0.9,0.6-1.8,1.1-2.7,1.6
	c-1,0.5-2.1,0.9-3.2,1.1c-1.3,0.2-2.5,0.4-3.8,0.4c-2.9,0.1-5.7-0.5-8.3-1.7c-2.1-1.1-3.9-2.8-5-4.9c-1.1-2.3-1.7-4.8-1.7-7.3
	c-0.1-2.5,0.5-5.1,1.6-7.4c1-2,2.6-3.7,4.5-4.9c2.1-1.2,4.6-1.8,7-1.8c2.4-0.1,4.8,0.6,6.8,2c1.8,1.3,3.1,3.1,3.9,5.2
	c0.8,2.2,1.2,4.6,1.2,7v1.4L981.9,493.5z M994.4,489.3c-0.1-1.2-0.5-2.3-1.1-3.4c-0.5-0.9-1.2-1.6-2.1-2.1c-0.9-0.5-2-0.7-3-0.7
	c-1.1,0-2.1,0.2-3.1,0.7c-0.9,0.5-1.6,1.2-2.2,2.1c-0.6,1-0.9,2.2-1.1,3.4H994.4z"/>
<linearGradient id="SVGID_00000073704312491606532040000003456323173628371865_" gradientUnits="userSpaceOnUse" x1="1150.6" y1="149.9001" x2="288.9" y2="149.9001" gradientTransform="matrix(1 0 0 1 0 341.9999)">
	<stop  offset="0" style="stop-color:#BD3606"/>
	<stop  offset="1" style="stop-color:#BB3606"/>
</linearGradient>
<path style="fill:url(#SVGID_00000073704312491606532040000003456323173628371865_);" d="M1005.1,505.2v-26.6h3.3l2.1,4.4
	c0.8-0.7,1.7-1.4,2.6-1.9c1-0.7,2.1-1.2,3.2-1.7c1-0.4,2-0.7,3.1-0.7l1.3,4.9c-1,0-2,0.2-3,0.6c-1.2,0.5-2.3,1-3.4,1.7
	c-1.1,0.7-2.2,1.5-3.1,2.4v16.9L1005.1,505.2L1005.1,505.2z"/>
<linearGradient id="SVGID_00000132779629414491902980000017670517650497367472_" gradientUnits="userSpaceOnUse" x1="1150.6" y1="146.5749" x2="288.9" y2="146.5749" gradientTransform="matrix(1 0 0 1 0 341.9999)">
	<stop  offset="0" style="stop-color:#BD3606"/>
	<stop  offset="1" style="stop-color:#BB3606"/>
</linearGradient>
<path style="fill:url(#SVGID_00000132779629414491902980000017670517650497367472_);" d="M1053.7,472.7c1.7,0.7,3.2,1.9,4.2,3.5
	s1.5,3.4,1.5,5.2c0,1.6-0.3,3.1-0.8,4.6c-0.6,1.5-1.5,3-2.6,4.2c-1.5,1.8-3.2,3.4-5,4.9l-6.6,5.5l15.9-0.1l0.9,5.1h-25.7v-4.4
	l12.1-10.5c1.2-1,2.3-2.1,3.3-3.2c0.8-0.8,1.5-1.8,2-2.8c0.4-0.8,0.7-1.7,0.7-2.7c0.1-1.5-0.6-3-1.9-3.9c-1.5-0.9-3.2-1.3-5-1.2
	c-1.2,0-2.5,0.1-3.7,0.5c-1.1,0.3-2.1,0.7-3.1,1.2l-2.4,1.3l-1.3-5.3c1.4-0.8,2.8-1.5,4.3-2c2.1-0.7,4.4-1.1,6.6-1
	C1049.4,471.4,1051.6,471.8,1053.7,472.7z"/>
<linearGradient id="SVGID_00000167388779344394527460000014130235782938245044_" gradientUnits="userSpaceOnUse" x1="1150.6" y1="146.9582" x2="288.9" y2="146.9582" gradientTransform="matrix(1 0 0 1 0 341.9999)">
	<stop  offset="0" style="stop-color:#BD3606"/>
	<stop  offset="1" style="stop-color:#BB3606"/>
</linearGradient>
<path style="fill:url(#SVGID_00000167388779344394527460000014130235782938245044_);" d="M1066.1,479.9c4.3-7.8,14.1-10.7,21.9-6.4
	c0.1,0.1,0.3,0.1,0.4,0.2c2.4,1.5,4.3,3.6,5.6,6.1c1.4,2.7,2.1,5.8,2,8.9c0.1,3.2-0.6,6.3-2,9.1c-1.3,2.6-3.2,4.8-5.7,6.3
	c-2.5,1.6-5.4,2.4-8.3,2.3c-2.9,0-5.8-0.7-8.3-2.3c-2.4-1.5-4.4-3.7-5.7-6.2c-1.4-2.8-2.1-5.9-2.1-9
	C1064,485.7,1064.7,482.6,1066.1,479.9z M1071.5,494.8c0.8,1.7,2,3.2,3.5,4.3c1.5,1,3.3,1.6,5.1,1.6c1.8,0,3.6-0.5,5.1-1.5
	c1.5-1.1,2.7-2.5,3.5-4.2c0.9-1.9,1.3-3.9,1.3-6s-0.4-4.2-1.3-6.1c-0.8-1.7-2-3.1-3.5-4.2c-3.1-2-7.1-2-10.2,0
	c-1.5,1-2.7,2.4-3.5,4.1c-0.9,1.8-1.3,3.9-1.3,5.9C1070.1,490.7,1070.6,492.8,1071.5,494.8z"/>
<linearGradient id="SVGID_00000137837459377787038850000005822287078511281060_" gradientUnits="userSpaceOnUse" x1="1150.6" y1="146.5749" x2="288.9" y2="146.5749" gradientTransform="matrix(1 0 0 1 0 341.9999)">
	<stop  offset="0" style="stop-color:#BD3606"/>
	<stop  offset="1" style="stop-color:#BB3606"/>
</linearGradient>
<path style="fill:url(#SVGID_00000137837459377787038850000005822287078511281060_);" d="M1117.3,472.7c1.7,0.7,3.2,1.9,4.2,3.5
	s1.5,3.4,1.5,5.2c0,1.6-0.3,3.1-0.8,4.6c-0.6,1.5-1.5,3-2.6,4.2c-1.5,1.8-3.2,3.4-5,4.9l-6.6,5.5l15.9-0.1l0.9,5.1h-25.7v-4.4
	l12.1-10.5c1.2-1,2.3-2.1,3.3-3.2c0.8-0.8,1.5-1.8,2-2.8c0.4-0.8,0.7-1.7,0.7-2.7c0.1-1.5-0.6-3-1.9-3.9c-1.5-0.9-3.2-1.3-5-1.2
	c-1.2,0-2.5,0.1-3.7,0.5c-1.1,0.3-2.1,0.7-3.1,1.2l-2.4,1.3l-1.3-5.3c1.4-0.8,2.8-1.5,4.3-2c2.1-0.7,4.4-1.1,6.6-1
	C1113,471.4,1115.2,471.8,1117.3,472.7z"/>
<linearGradient id="SVGID_00000042733459407177342790000005421082307179915931_" gradientUnits="userSpaceOnUse" x1="1150.6" y1="148.6563" x2="288.9" y2="148.6563" gradientTransform="matrix(1 0 0 1 0 341.9999)">
	<stop  offset="0" style="stop-color:#BD3606"/>
	<stop  offset="1" style="stop-color:#BB3606"/>
</linearGradient>
<path style="fill:url(#SVGID_00000042733459407177342790000005421082307179915931_);" d="M1145.9,472.8c1.7,0.8,3.1,2.1,4.1,3.7
	c0.9,1.5,1.4,3.2,1.4,5c0,1.2-0.3,2.4-0.8,3.5c-0.5,1-1.2,2-2,2.8c-0.7,0.7-1.6,1.3-2.5,1.7c1,0.3,2,0.8,2.8,1.6
	c1,0.9,1.8,1.9,2.3,3.1c0.6,1.4,0.9,2.9,0.9,4.4c0,2.1-0.6,4.1-1.7,5.8c-1.2,1.8-2.9,3.2-4.8,4.1c-2.3,1.1-4.8,1.6-7.3,1.5
	c-2.2,0-4.4-0.4-6.5-1.1c-2-0.6-3.9-1.5-5.8-2.5l3.3-4.5c1.4,0.8,2.8,1.5,4.3,2c1.6,0.5,3.2,0.7,4.8,0.7c1.2,0,2.4-0.2,3.6-0.7
	c1.1-0.4,2-1.1,2.7-2s1.1-2,1.1-3.2c0.1-1.8-0.8-3.6-2.3-4.7c-1.5-1.2-3.9-1.7-7.2-1.7h-2.2l-0.9-5.2h3.4c2.1,0.1,4.3-0.4,6.2-1.5
	c1.4-0.8,2.3-2.4,2.3-4c0-0.9-0.2-1.7-0.7-2.4c-0.5-0.8-1.3-1.4-2.1-1.8c-1-0.5-2.2-0.7-3.3-0.7c-1.7,0-3.5,0.3-5.1,1
	c-1.3,0.6-2.6,1.2-3.8,2.1l-3.1-4.5c1.8-1.2,3.7-2.1,5.7-2.9c2.1-0.7,4.3-1.1,6.5-1.1C1141.5,471.4,1143.8,471.9,1145.9,472.8z"/>
<linearGradient id="SVGID_00000053520173046570645120000002179668326391200662_" gradientUnits="userSpaceOnUse" x1="1150.6" y1="150.5001" x2="288.9" y2="150.5001" gradientTransform="matrix(1 0 0 1 0 341.9999)">
	<stop  offset="0" style="stop-color:#BD3606"/>
	<stop  offset="1" style="stop-color:#BB3606"/>
</linearGradient>
<rect x="635" y="490.3" style="fill:url(#SVGID_00000053520173046570645120000002179668326391200662_);" width="19.8" height="4.4"/>
<linearGradient id="SVGID_00000018919714521549302780000011425328317373540267_" gradientUnits="userSpaceOnUse" x1="1306.29" y1="61.2501" x2="444.58" y2="61.2501" gradientTransform="matrix(1 0 0 1 0 341.9999)">
	<stop  offset="0" style="stop-color:#BD3606"/>
	<stop  offset="1" style="stop-color:#BB3606"/>
</linearGradient>
<path style="fill:url(#SVGID_00000018919714521549302780000011425328317373540267_);" d="M571.3,403.3c0-1.9,0.4-3.8,1.1-5.6
	c0.7-1.7,1.8-3.3,3.1-4.7c1.3-1.4,2.9-2.5,4.7-3.2c1.8-0.8,3.7-1.2,5.7-1.2c1.9,0,3.9,0.4,5.6,1.2c1.8,0.8,3.3,1.9,4.7,3.2
	c1.4,1.4,2.4,2.9,3.2,4.7c0.8,1.8,1.1,3.7,1.1,5.6c0,2-0.4,3.9-1.1,5.7c-1.5,3.5-4.3,6.3-7.9,7.8c-1.8,0.8-3.7,1.1-5.7,1.1
	c-3.9,0-7.6-1.5-10.3-4.2c-1.3-1.3-2.4-2.9-3.1-4.7C571.6,407.2,571.2,405.3,571.3,403.3z M575.6,403.3c0,2.8,1,5.5,3,7.5
	c0.9,1,2.1,1.7,3.3,2.2c1.3,0.5,2.6,0.8,4,0.8s2.7-0.3,4-0.8c1.2-0.5,2.3-1.3,3.3-2.2c1.9-2,3-4.7,3-7.5c0-1.4-0.3-2.8-0.8-4.1
	c-0.5-1.3-1.3-2.4-2.2-3.4s-2-1.7-3.3-2.3c-2.6-1.1-5.5-1.1-8.1,0c-1.2,0.6-2.3,1.3-3.3,2.3c-0.9,1-1.7,2.1-2.2,3.4
	C575.8,400.5,575.6,401.9,575.6,403.3z"/>
<linearGradient id="SVGID_00000180329697226047849130000012735569966202257799_" gradientUnits="userSpaceOnUse" x1="1306.29" y1="61.4376" x2="444.58" y2="61.4376" gradientTransform="matrix(1 0 0 1 0 341.9999)">
	<stop  offset="0" style="stop-color:#BD3606"/>
	<stop  offset="1" style="stop-color:#BB3606"/>
</linearGradient>
<path style="fill:url(#SVGID_00000180329697226047849130000012735569966202257799_);" d="M611.2,407.4c0,1.2,0.3,2.3,0.9,3.3
	c0.6,1,1.4,1.8,2.4,2.3c1,0.6,2.2,0.9,3.4,0.9s2.4-0.3,3.5-0.9c1-0.5,1.8-1.4,2.4-2.3c0.6-1,0.9-2.1,0.9-3.3V389h4.1v18.5
	c0,1.9-0.5,3.8-1.5,5.5c-1,1.6-2.4,2.8-4,3.6c-3.5,1.7-7.5,1.7-11,0c-1.6-0.8-3-2.1-3.9-3.6c-1-1.7-1.5-3.5-1.4-5.5V389h4.2
	L611.2,407.4z"/>
<linearGradient id="SVGID_00000155112423834440370480000010131745179993496453_" gradientUnits="userSpaceOnUse" x1="1306.29" y1="61.3001" x2="444.58" y2="61.3001" gradientTransform="matrix(1 0 0 1 0 341.9999)">
	<stop  offset="0" style="stop-color:#BD3606"/>
	<stop  offset="1" style="stop-color:#BB3606"/>
</linearGradient>
<path style="fill:url(#SVGID_00000155112423834440370480000010131745179993496453_);" d="M644.4,389c1.4,0,2.8,0.2,4.2,0.6
	c1.2,0.4,2.3,1,3.3,1.8c0.9,0.8,1.6,1.7,2.1,2.8c0.5,1.2,0.8,2.5,0.8,3.9c0,1.1-0.2,2.3-0.5,3.4s-0.9,2.1-1.7,3s-1.9,1.7-3,2.1
	c-1.5,0.6-3,0.9-4.6,0.8h-4.2v10.2h-4.2V389H644.4z M644.9,403.4c0.9,0,1.8-0.1,2.7-0.5c0.7-0.3,1.2-0.7,1.7-1.3
	c0.4-0.5,0.7-1.1,0.9-1.7s0.3-1.1,0.3-1.7s-0.1-1.1-0.3-1.7s-0.5-1.2-0.9-1.6c-0.4-0.6-1-1-1.6-1.3c-0.8-0.4-1.7-0.5-2.5-0.5h-4.3
	v10.3L644.9,403.4z M649.7,405.8l7.4,11.8h-4.9l-7.5-11.7L649.7,405.8z"/>
<linearGradient id="SVGID_00000031909046193600330280000017576441030498630555_" gradientUnits="userSpaceOnUse" x1="1306.29" y1="61.3501" x2="444.58" y2="61.3501" gradientTransform="matrix(1 0 0 1 0 341.9999)">
	<stop  offset="0" style="stop-color:#BD3606"/>
	<stop  offset="1" style="stop-color:#BB3606"/>
</linearGradient>
<path style="fill:url(#SVGID_00000031909046193600330280000017576441030498630555_);" d="M676,389h4.2v24.6h14.3v4.1H676V389z"/>
<linearGradient id="SVGID_00000116222124020252883240000009988010192505306282_" gradientUnits="userSpaceOnUse" x1="1306.29" y1="61.3501" x2="444.58" y2="61.3501" gradientTransform="matrix(1 0 0 1 0 341.9999)">
	<stop  offset="0" style="stop-color:#BD3606"/>
	<stop  offset="1" style="stop-color:#BB3606"/>
</linearGradient>
<path style="fill:url(#SVGID_00000116222124020252883240000009988010192505306282_);" d="M700.8,389h18.8v4H705v8.2h13v4.1h-13v8.3
	h15.2v4.1h-19.4V389z"/>
<linearGradient id="SVGID_00000163789530991321465730000015017970222972748190_" gradientUnits="userSpaceOnUse" x1="1306.29" y1="61.1501" x2="444.58" y2="61.1501" gradientTransform="matrix(1 0 0 1 0 341.9999)">
	<stop  offset="0" style="stop-color:#BD3606"/>
	<stop  offset="1" style="stop-color:#BB3606"/>
</linearGradient>
<path style="fill:url(#SVGID_00000163789530991321465730000015017970222972748190_);" d="M749.9,415.1c-0.5,0.4-1.1,0.7-1.7,1
	c-0.8,0.4-1.6,0.7-2.4,0.9c-0.9,0.3-1.8,0.5-2.7,0.6c-0.9,0.2-1.7,0.2-2.6,0.2c-2.1,0-4.2-0.3-6.2-1.1c-1.8-0.7-3.4-1.7-4.7-3
	c-1.3-1.2-2.3-2.8-3-4.4c-0.7-1.8-1.1-3.6-1-5.5c0-2.2,0.4-4.4,1.2-6.5c0.7-1.8,1.8-3.4,3.2-4.8c1.3-1.3,2.9-2.3,4.7-3s3.7-1,5.6-1
	c1.6,0,3.2,0.2,4.8,0.6c1.3,0.3,2.6,0.9,3.8,1.5l-1.4,3.9c-0.6-0.3-1.3-0.6-2-0.9c-0.8-0.3-1.6-0.5-2.4-0.6
	c-0.7-0.2-1.5-0.2-2.2-0.2c-1.5,0-3.1,0.2-4.5,0.7c-1.3,0.5-2.4,1.2-3.4,2.1s-1.7,2.1-2.2,3.4c-0.5,1.4-0.8,2.9-0.8,4.5
	c0,1.4,0.3,2.8,0.8,4.1c1,2.5,3.1,4.4,5.6,5.3c1.4,0.5,2.9,0.8,4.4,0.7c0.9,0,1.8-0.1,2.7-0.3c0.8-0.2,1.6-0.4,2.3-0.8v-5.2h-5.5
	v-4.1h9.8L749.9,415.1z"/>
<linearGradient id="SVGID_00000178888347127776612710000010307984524276664237_" gradientUnits="userSpaceOnUse" x1="1306.29" y1="60.7001" x2="444.58" y2="60.7001" gradientTransform="matrix(1 0 0 1 0 341.9999)">
	<stop  offset="0" style="stop-color:#BD3606"/>
	<stop  offset="1" style="stop-color:#BB3606"/>
</linearGradient>
<path style="fill:url(#SVGID_00000178888347127776612710000010307984524276664237_);" d="M754.3,417.6l12.6-29.8h0.2l12.6,29.8h-4.8
	l-9.2-23.2l3-2l-10.3,25.2H754.3z M762,406.9h10.2l1.5,3.6h-12.9L762,406.9z"/>
<linearGradient id="SVGID_00000050663802755971466250000012677646066688621197_" gradientUnits="userSpaceOnUse" x1="1306.29" y1="61.2001" x2="444.58" y2="61.2001" gradientTransform="matrix(1 0 0 1 0 341.9999)">
	<stop  offset="0" style="stop-color:#BD3606"/>
	<stop  offset="1" style="stop-color:#BB3606"/>
</linearGradient>
<path style="fill:url(#SVGID_00000050663802755971466250000012677646066688621197_);" d="M805.5,415.4c-0.6,0.4-1.2,0.7-1.9,1
	c-0.9,0.4-1.9,0.8-2.9,1c-1.2,0.3-2.4,0.4-3.7,0.4c-2.1,0-4.1-0.4-6-1.2c-1.7-0.7-3.3-1.8-4.5-3.1c-1.2-1.3-2.2-2.9-2.9-4.6
	c-0.7-1.8-1-3.6-1-5.5c0-2,0.3-4,1-5.9c0.7-1.8,1.7-3.4,2.9-4.7c1.3-1.3,2.8-2.4,4.5-3.1c1.8-0.8,3.7-1.1,5.7-1.1
	c1.6,0,3.2,0.2,4.8,0.7c1.3,0.4,2.5,1,3.6,1.7l-1.7,3.9c-0.9-0.6-1.8-1.1-2.8-1.5c-1.2-0.5-2.4-0.7-3.7-0.7s-2.6,0.3-3.8,0.8
	s-2.3,1.3-3.2,2.2c-0.9,1-1.6,2.1-2.2,3.4c-0.5,1.3-0.8,2.7-0.8,4.2c0,1.4,0.2,2.9,0.7,4.2c0.4,1.2,1.1,2.4,2,3.4s2,1.7,3.2,2.2
	c1.3,0.5,2.7,0.8,4.2,0.8c1.3,0,2.6-0.2,3.9-0.7c1-0.4,1.9-0.9,2.8-1.5L805.5,415.4z"/>
<linearGradient id="SVGID_00000133490674537989306830000017667512679384206763_" gradientUnits="userSpaceOnUse" x1="1306.29" y1="61.3001" x2="444.58" y2="61.3001" gradientTransform="matrix(1 0 0 1 0 341.9999)">
	<stop  offset="0" style="stop-color:#BD3606"/>
	<stop  offset="1" style="stop-color:#BB3606"/>
</linearGradient>
<path style="fill:url(#SVGID_00000133490674537989306830000017667512679384206763_);" d="M819.7,408.2L809.1,389h5.2l8.2,15.6
	l-1.3,0.1l8.2-15.7h5.2l-10.7,19.2v9.4h-4.2V408.2z"/>
<linearGradient id="SVGID_00000150082217316370570910000005950041722155495323_" gradientUnits="userSpaceOnUse" x1="1306.29" y1="61.6001" x2="444.58" y2="61.6001" gradientTransform="matrix(1 0 0 1 0 341.9999)">
	<stop  offset="0" style="stop-color:#BD3606"/>
	<stop  offset="1" style="stop-color:#BB3606"/>
</linearGradient>
<path style="fill:url(#SVGID_00000150082217316370570910000005950041722155495323_);" d="M892.7,394.4c-1-0.5-2.1-1-3.2-1.3
	c-1.1-0.4-2.2-0.5-3.3-0.5c-1.2-0.1-2.5,0.3-3.5,1c-0.9,0.6-1.3,1.7-1.3,2.8c0,0.8,0.3,1.6,0.9,2.1c0.7,0.7,1.4,1.2,2.2,1.6
	c0.9,0.4,1.9,0.9,2.9,1.3c0.9,0.3,1.7,0.7,2.6,1.1c0.8,0.4,1.6,1,2.3,1.6c0.7,0.7,1.3,1.5,1.7,2.4c0.4,1.1,0.7,2.2,0.6,3.4
	c0,3-1.7,5.8-4.4,7.1c-1.6,0.8-3.4,1.1-5.1,1.1c-1.2,0-2.4-0.1-3.5-0.4s-2.2-0.6-3.2-1.1c-1-0.4-1.9-0.9-2.8-1.5l1.9-3.3
	c0.7,0.5,1.4,0.9,2.2,1.3s1.7,0.8,2.5,1s1.7,0.4,2.5,0.4c0.9,0,1.7-0.2,2.6-0.5c0.8-0.3,1.5-0.8,2.1-1.4c0.6-0.7,0.9-1.6,0.8-2.5
	c0-0.8-0.2-1.6-0.7-2.3c-0.5-0.7-1.2-1.2-1.9-1.6c-0.8-0.5-1.7-0.9-2.6-1.2c-0.9-0.3-1.8-0.7-2.7-1.1s-1.8-0.9-2.6-1.5
	s-1.4-1.3-1.9-2.2c-0.5-1-0.8-2.1-0.7-3.3c0-1.4,0.3-2.8,1.1-4c0.7-1.2,1.8-2.1,3-2.7c1.4-0.7,2.9-1.1,4.5-1.1c1.7,0,3.4,0.2,5,0.7
	c1.3,0.4,2.6,1,3.8,1.7L892.7,394.4z"/>
<linearGradient id="SVGID_00000059295717584239236970000000655045480930178439_" gradientUnits="userSpaceOnUse" x1="1306.29" y1="61.4501" x2="444.58" y2="61.4501" gradientTransform="matrix(1 0 0 1 0 341.9999)">
	<stop  offset="0" style="stop-color:#BD3606"/>
	<stop  offset="1" style="stop-color:#BB3606"/>
</linearGradient>
<path style="fill:url(#SVGID_00000059295717584239236970000000655045480930178439_);" d="M904.8,407.4c0,1.2,0.3,2.3,0.9,3.3
	c0.6,1,1.4,1.8,2.4,2.4s2.2,0.9,3.3,0.9c1.2,0,2.5-0.3,3.6-0.9c1-0.6,1.8-1.4,2.4-2.3c0.6-1,0.9-2.1,0.9-3.3V389h4.2v18.5
	c0.1,3.8-2,7.4-5.4,9.1c-1.7,0.9-3.6,1.3-5.6,1.3c-1.9,0-3.8-0.4-5.5-1.3c-1.6-0.8-3-2.1-4-3.6c-1-1.6-1.5-3.5-1.4-5.5V389h4.2
	L904.8,407.4z"/>
<linearGradient id="SVGID_00000048490146133128793680000006278926736507797167_" gradientUnits="userSpaceOnUse" x1="1306.29" y1="62.0001" x2="444.58" y2="62.0001" gradientTransform="matrix(1 0 0 1 0 341.9999)">
	<stop  offset="0" style="stop-color:#BD3606"/>
	<stop  offset="1" style="stop-color:#BB3606"/>
</linearGradient>
<path style="fill:url(#SVGID_00000048490146133128793680000006278926736507797167_);" d="M932.9,389l9.2,23l-2.4-0.4l8.6-22.6h5
	l-12.7,30l-12.7-30H932.9z"/>
<linearGradient id="SVGID_00000106829467407587823710000000789059954222268853_" gradientUnits="userSpaceOnUse" x1="1306.29" y1="60.7001" x2="444.58" y2="60.7001" gradientTransform="matrix(1 0 0 1 0 341.9999)">
	<stop  offset="0" style="stop-color:#BD3606"/>
	<stop  offset="1" style="stop-color:#BB3606"/>
</linearGradient>
<path style="fill:url(#SVGID_00000106829467407587823710000000789059954222268853_);" d="M953.3,417.6l12.6-29.8h0.2l12.6,29.8h-4.8
	l-9.2-23.2l3-2l-10.3,25.2H953.3z M961,406.9h10.2l1.5,3.6h-12.9L961,406.9z"/>
<linearGradient id="SVGID_00000181802262482687150290000003145159285322454717_" gradientUnits="userSpaceOnUse" x1="1306.29" y1="61.3001" x2="444.58" y2="61.3001" gradientTransform="matrix(1 0 0 1 0 341.9999)">
	<stop  offset="0" style="stop-color:#BD3606"/>
	<stop  offset="1" style="stop-color:#BB3606"/>
</linearGradient>
<path style="fill:url(#SVGID_00000181802262482687150290000003145159285322454717_);" d="M992,389c1.4,0,2.8,0.2,4.2,0.6
	c1.2,0.4,2.3,1,3.3,1.8c0.9,0.8,1.6,1.7,2.1,2.8c0.5,1.2,0.8,2.5,0.8,3.9c0,1.1-0.2,2.3-0.5,3.4s-0.9,2.1-1.7,3s-1.8,1.7-3,2.1
	c-1.5,0.6-3,0.9-4.6,0.8h-4.2v10.2h-4.2V389H992z M992.5,403.4c0.9,0,1.8-0.1,2.7-0.5c0.7-0.3,1.2-0.7,1.7-1.3
	c0.4-0.5,0.7-1.1,0.9-1.7s0.3-1.1,0.3-1.7s-0.1-1.1-0.3-1.7s-0.5-1.2-0.9-1.6c-0.4-0.6-1-1-1.6-1.3c-0.8-0.4-1.7-0.5-2.5-0.5h-4.3
	v10.3L992.5,403.4z M997.3,405.8l7.4,11.8h-4.9l-7.5-11.7L997.3,405.8z"/>
<linearGradient id="SVGID_00000064327448321326651900000013162213830088423825_" gradientUnits="userSpaceOnUse" x1="1306.29" y1="61.3001" x2="444.58" y2="61.3001" gradientTransform="matrix(1 0 0 1 0 341.9999)">
	<stop  offset="0" style="stop-color:#BD3606"/>
	<stop  offset="1" style="stop-color:#BB3606"/>
</linearGradient>
<path style="fill:url(#SVGID_00000064327448321326651900000013162213830088423825_);" d="M1035.6,418.6l-22.1-21.9l1.2,0.4l0.1,20.5
	h-4.3V388h0.2l21.8,22l-1-0.3l-0.1-20.7h4.2V418.6L1035.6,418.6z"/>
<linearGradient id="SVGID_00000097493533867667683570000007514003248629546392_" gradientUnits="userSpaceOnUse" x1="1306.29" y1="60.7001" x2="444.58" y2="60.7001" gradientTransform="matrix(1 0 0 1 0 341.9999)">
	<stop  offset="0" style="stop-color:#BD3606"/>
	<stop  offset="1" style="stop-color:#BB3606"/>
</linearGradient>
<path style="fill:url(#SVGID_00000097493533867667683570000007514003248629546392_);" d="M1041.4,417.6l12.6-29.8h0.2l12.6,29.8
	h-4.8l-9.2-23.2l3-2l-10.3,25.2H1041.4z M1049.1,406.9h10.2l1.5,3.6h-12.9L1049.1,406.9z"/>
<linearGradient id="SVGID_00000056405890621324301140000015366113691894094527_" gradientUnits="userSpaceOnUse" x1="1306.29" y1="60.8001" x2="444.58" y2="60.8001" gradientTransform="matrix(1 0 0 1 0 341.9999)">
	<stop  offset="0" style="stop-color:#BD3606"/>
	<stop  offset="1" style="stop-color:#BB3606"/>
</linearGradient>
<path style="fill:url(#SVGID_00000056405890621324301140000015366113691894094527_);" d="M1084.8,417.6V388l0,0l15.2,21.6l-1.8-0.4
	l15.2-21.2h0.1v29.6h-4.2v-20.1l0.3,2.2l-10.6,15l0,0l-10.8-15l0.7-2v19.9H1084.8z"/>
<linearGradient id="SVGID_00000127019249902576587310000012653578694950930082_" gradientUnits="userSpaceOnUse" x1="1306.29" y1="60.7001" x2="444.58" y2="60.7001" gradientTransform="matrix(1 0 0 1 0 341.9999)">
	<stop  offset="0" style="stop-color:#BD3606"/>
	<stop  offset="1" style="stop-color:#BB3606"/>
</linearGradient>
<path style="fill:url(#SVGID_00000127019249902576587310000012653578694950930082_);" d="M1119.1,417.6l12.6-29.8h0.2l12.6,29.8
	h-4.8l-9.2-23.2l3-2l-10.3,25.2H1119.1z M1126.7,406.9h10.2l1.5,3.6h-12.9L1126.7,406.9z"/>
<linearGradient id="SVGID_00000101069136112418586930000013993574512785655211_" gradientUnits="userSpaceOnUse" x1="1306.29" y1="61.3001" x2="444.58" y2="61.3001" gradientTransform="matrix(1 0 0 1 0 341.9999)">
	<stop  offset="0" style="stop-color:#BD3606"/>
	<stop  offset="1" style="stop-color:#BB3606"/>
</linearGradient>
<path style="fill:url(#SVGID_00000101069136112418586930000013993574512785655211_);" d="M1172.9,389v28.6h-4.2v-12.4h-14.5v12.4
	h-4.2V389h4.2v12.3h14.5V389H1172.9z"/>
<linearGradient id="SVGID_00000011732976354424309880000002531873927807213440_" gradientUnits="userSpaceOnUse" x1="1306.29" y1="61.3135" x2="444.58" y2="61.3135" gradientTransform="matrix(1 0 0 1 0 341.9999)">
	<stop  offset="0" style="stop-color:#BD3606"/>
	<stop  offset="1" style="stop-color:#BB3606"/>
</linearGradient>
<path style="fill:url(#SVGID_00000011732976354424309880000002531873927807213440_);" d="M1179.6,403.3c0-1.9,0.4-3.8,1.1-5.6
	c0.7-1.8,1.8-3.3,3.1-4.7c1.3-1.4,2.9-2.5,4.7-3.2c3.6-1.5,7.7-1.5,11.3,0c1.8,0.8,3.3,1.9,4.7,3.2c1.3,1.4,2.4,2.9,3.2,4.7
	c0.8,1.8,1.2,3.7,1.2,5.6c0,2-0.4,3.9-1.2,5.7c-1.5,3.5-4.3,6.3-7.9,7.8c-5.5,2.3-11.8,1.1-16-3.1c-1.3-1.3-2.4-2.9-3.1-4.7
	C1179.9,407.2,1179.5,405.3,1179.6,403.3z M1183.9,403.3c0,1.4,0.3,2.8,0.8,4.1c0.5,1.2,1.3,2.4,2.2,3.4c0.9,1,2.1,1.7,3.3,2.2
	c1.3,0.5,2.6,0.8,4,0.8s2.7-0.3,4-0.8c1.2-0.5,2.3-1.3,3.3-2.2c0.9-1,1.7-2.1,2.2-3.4s0.8-2.7,0.8-4.1s-0.3-2.8-0.8-4.1
	c-0.5-1.3-1.3-2.4-2.2-3.4c-0.9-1-2-1.7-3.3-2.3c-2.6-1.1-5.5-1.1-8.1,0c-1.2,0.6-2.3,1.3-3.3,2.3c-0.9,1-1.7,2.1-2.2,3.4
	C1184.1,400.5,1183.9,401.9,1183.9,403.3z"/>
<linearGradient id="SVGID_00000175313673192493836570000004072611830907781816_" gradientUnits="userSpaceOnUse" x1="1306.29" y1="61.3001" x2="444.58" y2="61.3001" gradientTransform="matrix(1 0 0 1 0 341.9999)">
	<stop  offset="0" style="stop-color:#BD3606"/>
	<stop  offset="1" style="stop-color:#BB3606"/>
</linearGradient>
<path style="fill:url(#SVGID_00000175313673192493836570000004072611830907781816_);" d="M1211.8,389h19.1v4h-7.5v24.6h-4.2V393
	h-7.3L1211.8,389L1211.8,389z"/>
<linearGradient id="SVGID_00000152977716305418639240000011153265670644290738_" gradientUnits="userSpaceOnUse" x1="1306.29" y1="61.6001" x2="444.58" y2="61.6001" gradientTransform="matrix(1 0 0 1 0 341.9999)">
	<stop  offset="0" style="stop-color:#BD3606"/>
	<stop  offset="1" style="stop-color:#BB3606"/>
</linearGradient>
<path style="fill:url(#SVGID_00000152977716305418639240000011153265670644290738_);" d="M1251.6,394.4c-1-0.5-2.1-1-3.2-1.3
	c-1.1-0.4-2.2-0.5-3.3-0.5c-1.2-0.1-2.5,0.3-3.5,1c-0.9,0.6-1.3,1.7-1.3,2.8c0,0.8,0.3,1.6,0.9,2.1c0.7,0.7,1.4,1.2,2.2,1.6
	c0.9,0.4,1.9,0.9,2.9,1.3c0.9,0.3,1.7,0.7,2.6,1.1c0.8,0.4,1.6,1,2.3,1.6c0.7,0.7,1.3,1.5,1.7,2.4c0.4,1.1,0.7,2.2,0.6,3.4
	c0,3-1.7,5.8-4.4,7.1c-1.6,0.8-3.3,1.1-5.1,1.1c-1.2,0-2.4-0.1-3.5-0.4s-2.2-0.6-3.2-1.1c-1-0.4-1.9-0.9-2.7-1.5l1.9-3.3
	c0.7,0.5,1.4,0.9,2.2,1.3c0.8,0.4,1.7,0.8,2.5,1s1.7,0.4,2.5,0.4c0.9,0,1.7-0.2,2.6-0.5c0.8-0.3,1.5-0.8,2.1-1.4
	c0.6-0.7,0.9-1.6,0.8-2.5c0-0.8-0.2-1.6-0.7-2.3c-0.5-0.7-1.2-1.2-1.9-1.6c-0.8-0.5-1.7-0.9-2.6-1.2c-0.9-0.3-1.8-0.7-2.7-1.1
	c-0.9-0.4-1.8-0.9-2.6-1.5c-0.8-0.6-1.4-1.3-1.9-2.2c-0.5-1-0.8-2.1-0.7-3.3c0-1.4,0.3-2.8,1.1-4c0.7-1.2,1.8-2.1,3-2.7
	c1.4-0.7,2.9-1.1,4.5-1.1c1.7,0,3.4,0.2,5,0.7c1.3,0.4,2.6,1,3.8,1.7L1251.6,394.4z"/>
<linearGradient id="SVGID_00000074406543728564038420000007751841533166549946_" gradientUnits="userSpaceOnUse" x1="1306.29" y1="60.7001" x2="444.58" y2="60.7001" gradientTransform="matrix(1 0 0 1 0 341.9999)">
	<stop  offset="0" style="stop-color:#BD3606"/>
	<stop  offset="1" style="stop-color:#BB3606"/>
</linearGradient>
<path style="fill:url(#SVGID_00000074406543728564038420000007751841533166549946_);" d="M1256.9,417.6l12.6-29.8h0.2l12.6,29.8
	h-4.8l-9.2-23.2l3-2l-10.3,25.2H1256.9z M1264.5,406.9h10.2l1.5,3.6h-12.9L1264.5,406.9z"/>
<linearGradient id="SVGID_00000124135096604473539080000005490367656853041844_" gradientUnits="userSpaceOnUse" x1="1306.29" y1="62.0001" x2="444.58" y2="62.0001" gradientTransform="matrix(1 0 0 1 0 341.9999)">
	<stop  offset="0" style="stop-color:#BD3606"/>
	<stop  offset="1" style="stop-color:#BB3606"/>
</linearGradient>
<path style="fill:url(#SVGID_00000124135096604473539080000005490367656853041844_);" d="M1287.3,389l9.2,23l-2.4-0.4l8.7-22.6h5
	l-12.8,30l-12.7-30H1287.3z"/>
<linearGradient id="SVGID_00000082338850156639890700000010014149354142463153_" gradientUnits="userSpaceOnUse" x1="1306.29" y1="62.4001" x2="444.58" y2="62.4001" gradientTransform="matrix(1 0 0 1 0 341.9999)">
	<stop  offset="0" style="stop-color:#BD3606"/>
	<stop  offset="1" style="stop-color:#BB3606"/>
</linearGradient>
<rect x="853.2" y="387" style="fill:url(#SVGID_00000082338850156639890700000010014149354142463153_);" width="4.4" height="34.8"/>
<linearGradient id="SVGID_00000046321995059217154650000004175671622066242714_" gradientUnits="userSpaceOnUse" x1="1442.24" y1="-27.3478" x2="580.53" y2="-27.3478" gradientTransform="matrix(1 0 0 1 0 341.9999)">
	<stop  offset="0" style="stop-color:#BD3606"/>
	<stop  offset="1" style="stop-color:#BB3606"/>
</linearGradient>
<path style="fill:url(#SVGID_00000046321995059217154650000004175671622066242714_);" d="M633.5,316.8c-2.7-2.5-5.7-4.6-9-6.3
	c-3.3-1.7-6.6-3.1-10.1-4.4c-3.8-1.5-7.6-3.1-11.1-4.8c-3.2-1.4-6-3.4-8.5-5.9c-2.1-2.1-3.2-4.9-3.2-7.8c-0.1-3.8,1.6-7.5,4.7-9.8
	c3.1-2.4,7.5-3.6,12.9-3.6c4.3,0.1,8.6,0.8,12.8,2.2c4.3,1.4,8.6,3.2,12.7,5.3l0.3,0.2l7-14.3l-0.3-0.2c-4.7-2.8-9.7-5.1-14.9-6.9
	c-6.6-2-13.4-3-20.3-2.9c-6.1,0.1-12.2,1.6-17.7,4.3c-4.9,2.5-9,6.2-12,10.9c-3,4.8-4.5,10.4-4.3,16.1c-0.1,4.5,0.9,9,3,13
	c1.9,3.5,4.5,6.5,7.7,8.9c3.1,2.4,6.5,4.5,10.1,6.1s7.1,3.1,10.6,4.5c3.3,1.3,6.5,2.8,9.6,4.5c2.7,1.5,5.1,3.5,7,5.8
	c1.7,2.3,2.7,5,2.6,7.9c0.2,3.3-0.9,6.6-3,9.1c-2.1,2.3-4.7,4-7.7,5s-6.1,1.6-9.3,1.6s-6.3-0.5-9.4-1.4c-3.4-0.9-6.6-2.1-9.8-3.6
	c-2.9-1.4-5.7-3.1-8.4-5l-0.3-0.2l-8.3,14.6l0.3,0.2c3.5,2.3,7.2,4.4,11.1,6.1c4.1,1.8,8.3,3.2,12.6,4.2c4.5,1,9.2,1.6,13.8,1.5
	c7.9,0,14.7-1.5,20.2-4.3c5.3-2.6,9.7-6.7,12.8-11.7c2.9-4.9,4.5-10.5,4.4-16.2c0.1-4.6-0.7-9.2-2.3-13.5
	C638.5,322.6,636.3,319.4,633.5,316.8z"/>
<linearGradient id="SVGID_00000065050767217284278460000016978681274011375257_" gradientUnits="userSpaceOnUse" x1="1442.24" y1="-29.7499" x2="580.53" y2="-29.7499" gradientTransform="matrix(1 0 0 1 0 341.9999)">
	<stop  offset="0" style="stop-color:#BD3606"/>
	<stop  offset="1" style="stop-color:#BB3606"/>
</linearGradient>
<path style="fill:url(#SVGID_00000065050767217284278460000016978681274011375257_);" d="M1272.6,253.8h-0.8l-49.6,116.4l-0.2,0.5
	h18.2l10.2-25h40.9l9.8,25h21.2L1272.7,254L1272.6,253.8z M1257.2,329.1l14.1-33.2l13.5,33.1L1257.2,329.1z"/>
<linearGradient id="SVGID_00000000933820040780459270000016369551310270889650_" gradientUnits="userSpaceOnUse" x1="1442.24" y1="-29.7499" x2="580.53" y2="-29.7499" gradientTransform="matrix(1 0 0 1 0 341.9999)">
	<stop  offset="0" style="stop-color:#BD3606"/>
	<stop  offset="1" style="stop-color:#BB3606"/>
</linearGradient>
<path style="fill:url(#SVGID_00000000933820040780459270000016369551310270889650_);" d="M965.5,253.8h-0.8l-49.6,116.4l-0.2,0.5
	h18.2l10.2-25h40.9l9.8,25h21.2L965.6,254L965.5,253.8z M950.2,329.1l14.1-33.2l13.5,33.1L950.2,329.1z"/>
<linearGradient id="SVGID_00000046332053325491401710000008169716459624373379_" gradientUnits="userSpaceOnUse" x1="1442.24" y1="-29.7499" x2="580.53" y2="-29.7499" gradientTransform="matrix(1 0 0 1 0 341.9999)">
	<stop  offset="0" style="stop-color:#BD3606"/>
	<stop  offset="1" style="stop-color:#BB3606"/>
</linearGradient>
<path style="fill:url(#SVGID_00000046332053325491401710000008169716459624373379_);" d="M707.5,253.8h-0.8l-49.6,116.4l-0.2,0.5
	H675l10.2-25h40.9l9.8,25h21.2L707.6,254L707.5,253.8z M692.2,329.1l14.1-33.2l13.5,33.1L692.2,329.1z"/>
<linearGradient id="SVGID_00000003788345637616528420000000015466441625286066_" gradientUnits="userSpaceOnUse" x1="1442.24" y1="-29.4999" x2="580.53" y2="-29.4999" gradientTransform="matrix(1 0 0 1 0 341.9999)">
	<stop  offset="0" style="stop-color:#BD3606"/>
	<stop  offset="1" style="stop-color:#BB3606"/>
</linearGradient>
<polygon style="fill:url(#SVGID_00000003788345637616528420000000015466441625286066_);" points="835.5,335.2 780,254.4 
	779.3,254.4 779.3,370.6 797.4,370.6 797.4,311.1 834.8,364 835.5,364 874.2,308.6 874.2,370.6 892.7,370.6 892.7,254.4 892,254.4 
	"/>
<linearGradient id="SVGID_00000163791032482354158240000003736316979230837690_" gradientUnits="userSpaceOnUse" x1="1442.24" y1="-27.4999" x2="580.53" y2="-27.4999" gradientTransform="matrix(1 0 0 1 0 341.9999)">
	<stop  offset="0" style="stop-color:#BD3606"/>
	<stop  offset="1" style="stop-color:#BB3606"/>
</linearGradient>
<path style="fill:url(#SVGID_00000163791032482354158240000003736316979230837690_);" d="M1103.3,319.9c3-3.5,5.3-7.6,6.7-12
	c1.3-4.3,2-8.8,2-13.3c0.1-5.3-0.9-10.5-3-15.4c-2-4.4-4.9-8.3-8.6-11.4c-3.9-3.2-8.4-5.6-13.3-7c-5.6-1.6-11.4-2.4-17.2-2.4h-32.2
	v112.2h18.9v-38.8h17.6l25.3,38.6l0.1,0.2h21.8l-27.6-43.4C1097.5,325.4,1100.7,322.9,1103.3,319.9z M1082.3,312.1
	c-3.1,1.3-6.5,2-9.9,1.9h-15.8v-37.7h16.4c3.3-0.1,6.6,0.6,9.6,2c2.3,1.2,4.4,2.8,6,4.9c1.4,1.8,2.5,3.9,3.1,6.2
	c0.6,1.9,0.9,3.9,0.9,6s-0.4,4.1-1,6.1c-0.7,2.2-1.8,4.3-3.2,6.1C1086.8,309.4,1084.7,311,1082.3,312.1L1082.3,312.1z"/>
<linearGradient id="SVGID_00000109736065804801109260000002003487565099247264_" gradientUnits="userSpaceOnUse" x1="1442.24" y1="-27.4499" x2="580.53" y2="-27.4499" gradientTransform="matrix(1 0 0 1 0 341.9999)">
	<stop  offset="0" style="stop-color:#BD3606"/>
	<stop  offset="1" style="stop-color:#BB3606"/>
</linearGradient>
<path style="fill:url(#SVGID_00000109736065804801109260000002003487565099247264_);" d="M1199.6,262.7c-6.1-2.9-13.6-4.3-22.2-4.3
	h-32.3v112.3h18.8v-38.8h15.9c7.1,0,13.3-1.1,18.2-3.2c4.6-1.9,8.7-4.9,11.9-8.7c2.9-3.6,5.2-7.7,6.6-12.1c1.4-4.3,2.1-8.8,2.1-13.3
	c0-7.6-1.7-14.1-4.9-19.5C1210.4,269.6,1205.5,265.3,1199.6,262.7z M1200,294.9c-0.1,2-0.4,4-1,5.9c-0.7,2.3-1.8,4.4-3.2,6.3
	c-1.6,2.1-3.7,3.8-6.2,5c-3.1,1.4-6.4,2.1-9.8,2H1164v-37.8h16.4c3.4-0.1,6.7,0.5,9.8,1.9c2.3,1.1,4.4,2.7,5.9,4.8
	c1.4,1.9,2.4,4,3,6.2C1199.6,291,1200,292.9,1200,294.9L1200,294.9z"/>
<linearGradient id="SVGID_00000018203782715839186890000002317769075612433281_" gradientUnits="userSpaceOnUse" x1="1442.24" y1="-27.4499" x2="580.53" y2="-27.4499" gradientTransform="matrix(1 0 0 1 0 341.9999)">
	<stop  offset="0" style="stop-color:#BD3606"/>
	<stop  offset="1" style="stop-color:#BB3606"/>
</linearGradient>
<polygon style="fill:url(#SVGID_00000018203782715839186890000002317769075612433281_);" points="1425.2,258.4 1425.5,331.6 
	1344.8,254.5 1344.5,254.5 1344.5,370.6 1363.3,370.6 1362.8,297.1 1443.2,374.6 1443.7,374.6 1443.7,258.4 "/>
<linearGradient id="SVGID_00000031907666352970411900000004552809121011239067_" gradientUnits="userSpaceOnUse" x1="2279.1299" y1="102.3001" x2="1417.4299" y2="102.3001" gradientTransform="matrix(-1 0 0 1 2851.8701 341.9999)">
	<stop  offset="0" style="stop-color:#BD3606"/>
	<stop  offset="1" style="stop-color:#BB3606"/>
</linearGradient>
<polygon style="fill:url(#SVGID_00000031907666352970411900000004552809121011239067_);" points="571.3,441 571.3,447.5 
	571.4,447.5 1442.9,444.8 1442.9,443.1 571.4,441 "/>
</svg>
